<svg xmlns="http://www.w3.org/2000/svg" width="1024" height="1024" fill="none" viewBox="0 0 1024 1024"><circle cx="512" cy="512" r="512" fill="url(#paint0_linear_62_55)"/><g filter="url(#filter0_d_62_55)"><path fill="#fff" d="M511.718 858.995C321.843 859.865 163.276 703.267 165.016 508.679C166.755 320.471 321.264 162.422 516.936 165.032C705.071 167.352 859 321.341 859 512.159C858.71 704.137 703.912 858.705 511.718 858.995ZM512.008 807.956C675.503 807.666 807.69 675.427 807.69 512.159C807.69 348.02 675.213 215.782 511.138 215.782C348.803 215.782 216.325 348.6 216.035 511.579C215.745 674.847 348.803 808.246 512.008 807.956Z"/><path fill="#fff" d="M512.309 454.161C518.397 464.02 524.195 473.3 529.992 482.87C552.603 519.7 574.924 556.819 597.535 593.649C599.565 597.129 599.855 599.449 597.825 602.639C584.781 624.099 572.026 645.849 558.981 667.598C537.529 702.688 487.089 703.558 465.348 668.758C451.723 647.009 439.258 624.679 426.503 602.349C425.344 600.319 425.344 596.839 426.503 595.099C454.332 548.99 482.161 503.17 509.99 457.351C510.28 456.191 511.15 455.611 512.309 454.161ZM512.019 526.95C497.525 550.73 483.611 573.929 469.696 597.129C469.117 597.999 469.117 600.029 469.696 600.899C478.973 616.849 487.669 633.089 497.815 648.749C504.193 658.898 519.556 658.318 525.934 647.879C535.21 632.799 544.487 617.429 553.183 602.059C554.343 600.319 554.053 596.549 553.183 594.809C548.255 586.109 542.747 577.409 537.529 568.999C529.123 555.079 521.006 541.45 512.019 526.95Z"/><path fill="#fff" d="M463.022 446.33C458.093 438.21 453.455 430.67 448.817 423.13C444.469 416.17 441.57 406.6 435.193 403.12C428.815 399.64 419.249 401.96 411.132 401.96C398.957 401.96 386.782 401.96 374.607 401.96C362.431 401.96 358.083 409.79 364.171 420.23C385.042 455.9 405.624 491.86 426.786 527.529C430.265 533.329 430.554 537.679 426.496 543.189C420.408 552.179 414.901 561.749 408.813 571.609C407.364 569.869 406.204 568.709 405.334 567.259C380.114 524.339 354.894 481.42 329.964 438.21C314.021 410.37 325.036 377.891 354.315 366.871C359.823 364.841 366.2 363.681 372.288 363.681C398.667 363.391 424.757 363.681 451.136 363.391C455.195 363.391 457.804 364.551 459.833 368.031C467.37 380.791 475.487 393.551 483.024 406.31C484.183 408.34 484.763 411.82 483.893 413.56C478.096 424 471.718 434.15 465.341 444.3C465.051 444.88 464.181 445.17 463.022 446.33Z"/><path fill="#fff" d="M560.418 446.909C552.881 434.729 546.214 423.709 539.546 412.399C538.966 411.239 539.256 408.629 540.126 407.179C548.243 393.549 556.36 379.629 565.056 366.289C566.216 364.549 569.115 363.1 571.144 363.1C598.683 362.81 626.222 362.52 653.761 363.1C690.866 363.969 712.608 404.279 694.055 437.049C676.662 467.498 658.689 497.658 641.006 528.108C634.049 540.288 626.802 552.468 619.844 564.647C618.685 566.677 617.525 568.417 615.496 571.317C607.959 558.847 601.002 547.538 594.335 535.938C593.465 534.488 594.914 531.588 595.784 529.848C616.656 493.888 637.527 457.929 658.689 421.969C659.848 420.229 661.008 418.489 661.878 416.459C664.777 409.209 660.428 401.669 652.601 401.669C632.309 401.379 612.307 401.379 592.015 401.669C589.986 401.669 587.087 403.699 585.928 405.729C578.681 417.039 571.723 428.639 564.766 439.949C563.607 441.979 562.447 443.719 560.418 446.909Z"/></g><defs><filter id="filter0_d_62_55" width="723.999" height="723.998" x="150.001" y="154" color-interpolation-filters="sRGB" filterUnits="userSpaceOnUse"><feFlood flood-opacity="0" result="BackgroundImageFix"/><feColorMatrix in="SourceAlpha" result="hardAlpha" type="matrix" values="0 0 0 0 0 0 0 0 0 0 0 0 0 0 0 0 0 0 127 0"/><feOffset dy="4"/><feGaussianBlur stdDeviation="7.5"/><feComposite in2="hardAlpha" operator="out"/><feColorMatrix type="matrix" values="0 0 0 0 0 0 0 0 0 0 0 0 0 0 0 0 0 0 0.25 0"/><feBlend in2="BackgroundImageFix" mode="normal" result="effect1_dropShadow_62_55"/><feBlend in="SourceGraphic" in2="effect1_dropShadow_62_55" mode="normal" result="shape"/></filter><linearGradient id="paint0_linear_62_55" x1="512" x2="512" y1="0" y2="1280" gradientUnits="userSpaceOnUse"><stop stop-color="#FDD923"/><stop offset="0" stop-color="#FDD923"/><stop offset="1" stop-color="#E45A33"/></linearGradient></defs></svg>